<svg width="42" height="80" viewBox="0 0 42 80" fill="none" xmlns="http://www.w3.org/2000/svg">
<path d="M11.92 69.36C9.41333 69.36 7.52 69.0667 6.24 68.48C5.01333 67.8933 4.18667 67.1733 3.76 66.32C3.33333 65.4133 3.12 64.5333 3.12 63.68V63.12C3.12 62.6933 3.25333 62.1333 3.52 61.44C3.78667 60.6933 4.37333 60.32 5.28 60.32C5.70667 60.32 5.94667 60.6667 6 61.36C6.05333 62 6.29333 62.6933 6.72 63.44C7.57333 64.8267 8.66667 65.7333 10 66.16C11.3333 66.5867 13.0133 66.8 15.04 66.8C16.8 66.8 18.6667 66.5067 20.64 65.92C22.6667 65.3333 24.56 64.5067 26.32 63.44C28.08 62.3733 29.4933 61.0933 30.56 59.6C31.68 58.1067 32.24 56.4267 32.24 54.56C32.24 52.8533 31.6267 51.44 30.4 50.32C29.2267 49.2 27.68 48.2133 25.76 47.36C23.84 46.5067 21.8133 45.7067 19.68 44.96C17.6 44.16 15.6 43.2267 13.68 42.16C11.76 41.0933 10.1867 39.7867 8.96 38.24C7.78667 36.6933 7.2 34.7467 7.2 32.4C7.2 30.1067 7.84 27.92 9.12 25.84C10.4533 23.76 12.24 21.92 14.48 20.32C16.7733 18.6667 19.3333 17.3867 22.16 16.48C25.04 15.52 28.0267 15.04 31.12 15.04C33.4133 15.04 35.12 15.4667 36.24 16.32C37.36 17.12 38.1067 18.1333 38.48 19.36C38.9067 20.5333 39.12 21.7333 39.12 22.96C39.12 23.2267 39.04 23.68 38.88 24.32C38.72 24.96 38.4533 25.5467 38.08 26.08C37.76 26.56 37.36 26.8 36.88 26.8C36.5067 26.8 36.32 26.4533 36.32 25.76V24.16C36.32 21.7067 35.5733 20.08 34.08 19.28C32.64 18.4267 30.8267 18 28.64 18C27.2 18 25.44 18.2667 23.36 18.8C21.3333 19.28 19.3333 20.0533 17.36 21.12C15.3867 22.1333 13.7333 23.3867 12.4 24.88C11.12 26.3733 10.48 28.1333 10.48 30.16C10.48 30.2667 10.48 30.4 10.48 30.56C10.5333 30.6667 10.56 30.7733 10.56 30.88C10.8267 33.12 11.6267 34.9867 12.96 36.48C14.3467 37.92 16.0267 39.12 18 40.08C19.9733 41.04 22.0267 41.8933 24.16 42.64C26.3467 43.3867 28.3733 44.16 30.24 44.96C32.1067 45.76 33.6267 46.72 34.8 47.84C35.9733 48.9067 36.56 50.32 36.56 52.08C36.56 54.16 35.8933 56.24 34.56 58.32C33.2267 60.3467 31.4133 62.2133 29.12 63.92C26.8267 65.5733 24.1867 66.9067 21.2 67.92C18.2667 68.88 15.1733 69.36 11.92 69.36Z" fill="black"/>
<path d="M17.3832 58.6895C21.7211 57.4501 25.9238 55.5106 30.0653 53.7357C30.4828 53.5568 30.8535 53.3203 31.2613 53.1165" stroke="black" stroke-width="2" stroke-linecap="round"/>
<path d="M16.8004 57.4446C17.8178 56.3545 18.5903 55.0397 19.4842 53.853C21.6221 51.015 23.9343 48.2766 26.2582 45.5886C27.255 44.4357 28.1595 43.1825 28.9701 41.8906C29.2913 41.3786 29.4051 40.9501 29.8161 40.4843C30.7766 39.3958 31.3292 38.0637 32.091 36.8591C32.8047 35.7304 33.1882 34.5614 33.6654 33.3068C33.8235 32.8912 33.9152 32.2614 34.2481 31.9285" stroke="black" stroke-width="2" stroke-linecap="round"/>
<path d="M16.4978 58.1505C16.6247 58.2933 16.6368 58.5539 16.8564 58.5539C17.1403 58.5539 17.4241 58.5539 17.708 58.5539" stroke="black" stroke-width="2" stroke-linecap="round"/>
<path d="M20.3302 54.9232V56.5369" stroke="black" stroke-width="2" stroke-linecap="round"/>
<path d="M21.843 56.0326C22.1349 53.8437 22.6996 51.6427 23.4567 49.5779" stroke="black" stroke-width="2" stroke-linecap="round"/>
<path d="M23.6584 55.6292C24.3659 52.2873 25.7275 49.2574 27.0875 46.1489" stroke="black" stroke-width="2" stroke-linecap="round"/>
<path d="M25.9781 54.3181C26.7448 51.6823 27.8932 49.103 28.9028 46.5523" stroke="black" stroke-width="2" stroke-linecap="round"/>
<path d="M28.7011 49.9813V52.8052" stroke="black" stroke-width="2" stroke-linecap="round"/>
<path d="M30.0122 50.7882V52.5027" stroke="black" stroke-width="2" stroke-linecap="round"/>
<path d="M29.7786 38.1207C28.5131 38.2262 27.4912 39.0695 26.3068 39.4216C25.9313 39.5333 25.631 39.7593 25.2661 39.8932C24.7396 40.0865 24.2515 40.3224 23.7497 40.564C23.425 40.7204 23.0985 40.8879 22.7578 41.0071C22.5264 41.0881 22.2947 41.2942 22.0626 41.3364C21.7132 41.4 21.4064 41.6676 21.0706 41.7795" stroke="black" stroke-width="2" stroke-linecap="round"/>
<path d="M26.9248 40.6087C26.7029 41.5085 26.1385 42.2001 25.6889 42.991C25.5285 43.2731 25.4309 43.5637 25.2417 43.8285" stroke="black" stroke-width="2" stroke-linecap="round"/>
<path d="M28.3883 39.8038C28.1172 41.0778 27.4939 42.1699 26.7784 43.2431" stroke="black" stroke-width="2" stroke-linecap="round"/>
<path d="M24.5831 41.56C24.7518 41.4757 24.5318 42.5656 24.5262 42.5845C24.3305 43.2404 24.0545 43.8855 23.6318 44.4139" stroke="black" stroke-width="2" stroke-linecap="round"/>
<path d="M32.8899 31.8501C31.7373 32.112 30.6016 32.5885 29.4816 32.9476C25.5484 34.2089 21.557 35.2459 17.5913 36.3944C16.2839 36.773 14.9402 37.1401 13.6535 37.569" stroke="black" stroke-width="2" stroke-linecap="round"/>
<path d="M32.9712 31.7931H33.9352" stroke="black" stroke-width="2" stroke-linecap="round"/>
</svg>
